<?xml version="1.0" encoding="UTF-8"?>
<!DOCTYPE svg PUBLIC "-//W3C//DTD SVG 1.1//EN" "http://www.w3.org/Graphics/SVG/1.1/DTD/svg11.dtd">
<svg xmlns="http://www.w3.org/2000/svg" version="1.1" width="225px" height="225px" style="shape-rendering:geometricPrecision; text-rendering:geometricPrecision; image-rendering:optimizeQuality; fill-rule:evenodd; clip-rule:evenodd" xmlns:xlink="http://www.w3.org/1999/xlink">
<g><path style="opacity:1" fill="#fefefe" d="M -0.5,-0.5 C 36.8333,-0.5 74.1667,-0.5 111.5,-0.5C 88.8545,22.4792 66.1878,45.4792 43.5,68.5C 51.5,77.1667 59.8333,85.5 68.5,93.5C 83.1527,79.3474 97.6527,65.0141 112,50.5C 126.347,65.0141 140.847,79.3474 155.5,93.5C 164.167,85.5 172.5,77.1667 180.5,68.5C 157.812,45.4792 135.146,22.4792 112.5,-0.5C 149.833,-0.5 187.167,-0.5 224.5,-0.5C 224.5,36.8333 224.5,74.1667 224.5,111.5C 215.868,103.369 207.368,95.0357 199,86.5C 190.5,95 182,103.5 173.5,112C 182,120.5 190.5,129 199,137.5C 207.368,128.964 215.868,120.631 224.5,112.5C 224.5,149.833 224.5,187.167 224.5,224.5C 187.167,224.5 149.833,224.5 112.5,224.5C 135.146,201.521 157.812,178.521 180.5,155.5C 172.5,146.833 164.167,138.5 155.5,130.5C 140.847,144.653 126.347,158.986 112,173.5C 97.6527,158.986 83.1527,144.653 68.5,130.5C 59.8333,138.5 51.5,146.833 43.5,155.5C 66.1878,178.521 88.8545,201.521 111.5,224.5C 74.1667,224.5 36.8333,224.5 -0.5,224.5C -0.5,187.167 -0.5,149.833 -0.5,112.5C 8.13165,120.631 16.6317,128.964 25,137.5C 33.5,129 42,120.5 50.5,112C 42,103.5 33.5,95 25,86.5C 16.6317,95.0357 8.13165,103.369 -0.5,111.5C -0.5,74.1667 -0.5,36.8333 -0.5,-0.5 Z"/></g>
<g><path style="opacity:1" fill="#f3ba2f" d="M 111.5,-0.5 C 111.833,-0.5 112.167,-0.5 112.5,-0.5C 135.146,22.4792 157.812,45.4792 180.5,68.5C 172.5,77.1667 164.167,85.5 155.5,93.5C 140.847,79.3474 126.347,65.0141 112,50.5C 97.6527,65.0141 83.1527,79.3474 68.5,93.5C 59.8333,85.5 51.5,77.1667 43.5,68.5C 66.1878,45.4792 88.8545,22.4792 111.5,-0.5 Z"/></g>
<g><path style="opacity:1" fill="#f2b92c" d="M 111.5,86.5 C 120.298,94.7977 128.965,103.298 137.5,112C 129,120.5 120.5,129 112,137.5C 103.5,129 95,120.5 86.5,112C 95.0357,103.632 103.369,95.1317 111.5,86.5 Z"/></g>
<g><path style="opacity:1" fill="#f3ba30" d="M -0.5,112.5 C -0.5,112.167 -0.5,111.833 -0.5,111.5C 8.13165,103.369 16.6317,95.0357 25,86.5C 33.5,95 42,103.5 50.5,112C 42,120.5 33.5,129 25,137.5C 16.6317,128.964 8.13165,120.631 -0.5,112.5 Z"/></g>
<g><path style="opacity:1" fill="#f3ba30" d="M 224.5,111.5 C 224.5,111.833 224.5,112.167 224.5,112.5C 215.868,120.631 207.368,128.964 199,137.5C 190.5,129 182,120.5 173.5,112C 182,103.5 190.5,95 199,86.5C 207.368,95.0357 215.868,103.369 224.5,111.5 Z"/></g>
<g><path style="opacity:1" fill="#f3ba2f" d="M 112.5,224.5 C 112.167,224.5 111.833,224.5 111.5,224.5C 88.8545,201.521 66.1878,178.521 43.5,155.5C 51.5,146.833 59.8333,138.5 68.5,130.5C 83.1527,144.653 97.6527,158.986 112,173.5C 126.347,158.986 140.847,144.653 155.5,130.5C 164.167,138.5 172.5,146.833 180.5,155.5C 157.812,178.521 135.146,201.521 112.5,224.5 Z"/></g>
</svg>
